<svg aria-hidden="true" style="width:0;height:0;position:absolute;overflow:hidden" xmlns="http://www.w3.org/2000/svg"><defs><symbol id="icon-facebook" viewBox="0 0 33 32"><path d="M16.471 32c8.837 0 16-7.163 16-16s-7.163-16-16-16-16 7.163-16 16 7.163 16 16 16z"/><path fill="#fff" style="fill:var(--color2,#fff)" d="M20.916 15.981h-2.61v9.618h-3.955v-9.618H12.47v-3.38h1.881v-2.188c0-1.564.739-4.014 3.99-4.014l2.929.012v3.281h-2.125c-.349 0-.839.175-.839.921v1.989h2.955l-.346 3.377z"/></symbol><symbol id="icon-github" viewBox="0 0 32 32"><path d="M32 16c0 8.837-7.163 16-16 16S0 24.837 0 16 7.163 0 16 0s16 7.163 16 16z"/><path fill="#fff" style="fill:var(--color2,#fff)" d="M16 6.588c-5.169 0-9.412 4.242-9.412 9.412 0 4.411 3.095 8.419 7.206 9.412v-3.114a2.307 2.307 0 0 1-1.197-.03c-.556-.164-1.008-.535-1.344-1.1-.214-.361-.593-.752-.988-.723l-.097-1.099c.855-.073 1.595.521 2.034 1.258.195.328.419.52.708.605.278.082.577.043.926-.081.088-.698.407-.959.649-1.326v-.001c-2.451-.366-3.428-1.666-3.816-2.693-.514-1.363-.238-3.066.671-4.142.018-.021.05-.076.037-.114-.417-1.258.091-2.3.11-2.41.481.142.559-.143 2.088.786l.264.159c.111.066.076.028.186.02A7.984 7.984 0 0 1 16 11.129a8.016 8.016 0 0 1 2.002.285l.086.009c-.008-.001.023-.005.075-.036 1.911-1.157 1.842-.779 2.354-.946.018.111.519 1.169.107 2.411-.056.171 1.657 1.739.708 4.256-.388 1.027-1.365 2.328-3.816 2.693v.001c.314.479.692.734.69 1.722v3.887c4.111-.993 7.206-5 7.206-9.412 0-5.169-4.242-9.412-9.412-9.412z"/></symbol><symbol id="icon-telegram" viewBox="0 0 33 32"><path d="M32.235 16c0 8.837-7.163 16-16 16s-16-7.163-16-16 7.163-16 16-16 16 7.163 16 16z"/><path fill="#fff" style="fill:var(--color2,#fff)" d="m13.102 18.375-.318 4.169c.454 0 .651-.182.887-.401l2.13-1.9 4.414 3.017c.81.421 1.38.199 1.598-.695l2.898-12.673c.257-1.117-.433-1.554-1.222-1.28L6.457 14.698c-1.162.421-1.145 1.026-.198 1.3l4.355 1.264 10.115-5.907c.476-.294.909-.131.553.163L13.1 18.375z"/></symbol><symbol id="icon-arrow-right" viewBox="0 0 32 32"><path d="M4 17.333h20.781l-7.057 7.057a1.332 1.332 0 1 0 1.886 1.885l9.333-9.333a1.332 1.332 0 0 0 0-1.885L19.61 5.724a1.331 1.331 0 0 0-1.886 0 1.332 1.332 0 0 0 0 1.885l7.057 7.057H4a1.333 1.333 0 0 0 0 2.666z"/></symbol><symbol id="menu" viewBox="0 0 20 14"><path d="M0 1h20M0 7h20M0 13h20" stroke="#D41443"/></symbol><symbol id="logo" viewBox="0 0 50 50"><g transform="matrix(.1 0 0 -.1 0 50)" fill="#d41443"><circle r="242" cx="250" cy="250" fill="#fff" stroke="#fff"/><path d="M190 491C91 459 22 381 5 283-9 195 52 75 133 34c41-22 47-8 9 22-27 22-32 32-32 69 0 26-6 47-15 55-18 15-20 54-2 68 7 6 14 26 15 44 5 66 76 128 147 128s142-62 147-128c1-18 8-38 15-44 18-14 16-53-2-68-9-8-15-29-15-55 0-37-5-47-32-69-44-34-29-44 19-12 197 131 116 434-120 452-29 2-63 0-77-5z"/><path d="M203 375c-18-8-33-18-33-24 0-11 54-31 85-31s85 20 85 31c0 12-62 39-87 39-10-1-33-7-50-15zM146 313c-3-4-6-17-6-30 0-23 1-23 115-23s115 0 115 23c0 34-9 38-41 22-36-19-112-19-148 0-16 8-31 11-35 8zM117 224c-16-17 11-24 89-24h84v-35c0-19 5-35 10-35 6 0 10 15 10 34 0 33 2 35 40 38 22 2 40 8 40 13 0 11-262 20-273 9z"/><path d="M140 136c0-55 19-66 115-66s115 11 115 66c0 25-4 34-16 34-10 0-14-6-11-14 8-19-20-56-42-56s-51 30-51 53c0 14-10 17-55 17h-55v-34zM202 23c6-32 108-29 108 2 0 11-13 15-56 15-47 0-55-3-52-17z"/></g></symbol><symbol id="close" viewBox="0 0 16 16"><path d="m1.26 1 13.48 14M1 14.74 15 1.26" stroke="#fff"/></symbol></defs></svg>