<svg xmlns="http://www.w3.org/2000/svg">
  <defs>
    <symbol id="menu" viewBox="0 0 20 14">
      <path d="M0 1H20" stroke="#D41443"/>
      <path d="M0 7H20" stroke="#D41443"/>
      <path d="M0 13H20" stroke="#D41443"/>    
    </symbol>
    <symbol id="logo" viewBox="0 0 50 50">
      <g transform="translate(0.000000,50.000000) scale(0.100000,-0.100000)"
        fill="#d41443" stroke="none">
        <circle r="242" cx="250" cy="250" fill="#fff" stroke="#fff"  />
        <path d="M190 491 c-99 -32 -168 -110 -185 -208 -14 -88 47 -208 128 -249 41
        -22 47 -8 9 22 -27 22 -32 32 -32 69 0 26 -6 47 -15 55 -18 15 -20 54 -2 68 7
        6 14 26 15 44 5 66 76 128 147 128 71 0 142 -62 147 -128 1 -18 8 -38 15 -44
        18 -14 16 -53 -2 -68 -9 -8 -15 -29 -15 -55 0 -37 -5 -47 -32 -69 -44 -34 -29
        -44 19 -12 197 131 116 434 -120 452 -29 2 -63 0 -77 -5z"/>
        <path d="M203 375 c-18 -8 -33 -18 -33 -24 0 -11 54 -31 85 -31 31 0 85 20 85
        31 0 12 -62 39 -87 39 -10 -1 -33 -7 -50 -15z"/>
        <path d="M146 313 c-3 -4 -6 -17 -6 -30 0 -23 1 -23 115 -23 114 0 115 0 115
        23 0 34 -9 38 -41 22 -36 -19 -112 -19 -148 0 -16 8 -31 11 -35 8z"/>
        <path d="M117 224 c-16 -17 11 -24 89 -24 l84 0 0 -35 c0 -19 5 -35 10 -35 6
        0 10 15 10 34 0 33 2 35 40 38 22 2 40 8 40 13 0 11 -262 20 -273 9z"/>
        <path d="M140 136 c0 -55 19 -66 115 -66 96 0 115 11 115 66 0 25 -4 34 -16
        34 -10 0 -14 -6 -11 -14 8 -19 -20 -56 -42 -56 -22 0 -51 30 -51 53 0 14 -10
        17 -55 17 l-55 0 0 -34z"/>
        <path d="M202 23 c6 -32 108 -29 108 2 0 11 -13 15 -56 15 -47 0 -55 -3 -52
        -17z"/>
      </g>
    </symbol>
    <symbol id="close" viewBox="0 0 16 16">
      <path d="M1.25928 1L14.7408 15" stroke="white"/>
      <path d="M1 14.7407L15 1.25924" stroke="white"/>   
    </symbol>
  </defs>
</svg>